<?xml version="1.0" standalone="no"?>
<svg version="1.0" xmlns="http://www.w3.org/2000/svg"
 width="645.000000pt" height="512.000000pt" viewBox="0 0 645.000000 512.000000"
 preserveAspectRatio="xMidYMid meet">
<g transform="translate(0.000000,512.000000) scale(0.100000,-0.100000)"
fill="#000000" stroke="none">
<path d="M3599 5104 c-113 -34 -192 -190 -263 -519 -43 -197 -116 -693 -135
-920 -5 -55 -18 -190 -30 -300 -53 -506 -72 -700 -81 -822 -9 -132 -27 -322
-75 -793 -14 -135 -27 -270 -30 -300 -33 -349 -124 -882 -182 -1063 -31 -97
-39 -93 -87 49 -56 164 -117 453 -165 779 -37 253 -80 547 -106 735 -149 1083
-264 1443 -479 1505 -64 19 -104 15 -179 -17 -176 -76 -294 -399 -432 -1178
-103 -580 -167 -877 -224 -1047 -33 -99 -83 -207 -102 -219 -40 -24 -131 234
-193 546 -30 152 -76 425 -111 660 -71 471 -121 780 -150 915 -13 61 -26 126
-29 145 -8 45 -50 192 -88 300 -72 210 -195 340 -322 340 -63 0 -136 -70 -136
-129 0 -57 43 -116 91 -126 71 -16 134 -171 214 -527 15 -65 30 -144 35 -175
5 -32 17 -112 28 -178 29 -175 68 -425 98 -625 105 -714 203 -1112 314 -1276
116 -171 294 -198 426 -65 48 47 111 150 142 231 68 175 145 494 217 900 89
501 113 624 165 840 56 231 123 401 161 408 16 3 26 -13 66 -113 67 -167 154
-611 228 -1165 115 -863 189 -1272 276 -1542 34 -105 48 -133 101 -213 49 -74
96 -111 166 -131 69 -20 134 -6 190 41 44 39 108 154 140 255 74 232 150 712
217 1385 51 517 84 854 95 985 6 74 17 198 25 275 8 77 26 259 40 405 14 146
35 337 47 425 11 88 24 194 28 236 5 41 18 134 29 205 12 71 24 147 27 169 17
115 91 395 105 395 8 0 49 -102 49 -121 0 -6 11 -49 24 -97 50 -183 144 -806
181 -1197 3 -33 16 -157 30 -275 14 -118 36 -325 50 -460 15 -135 35 -310 46
-390 10 -80 23 -191 29 -247 18 -191 94 -641 136 -808 54 -213 126 -371 195
-429 39 -33 129 -60 172 -51 80 18 150 70 198 150 102 169 162 394 258 975 12
69 23 143 26 165 12 106 110 786 147 1020 57 365 102 572 158 732 30 85 49
123 62 123 42 0 165 -515 208 -870 6 -47 21 -159 35 -250 13 -91 35 -264 50
-385 52 -437 120 -952 146 -1101 10 -61 23 -145 29 -185 27 -193 107 -481 167
-606 62 -129 150 -202 243 -203 92 0 168 108 129 183 -19 36 -61 77 -80 77
-61 0 -138 254 -218 720 -34 198 -82 556 -156 1170 -163 1347 -284 1736 -539
1742 -128 2 -211 -63 -286 -228 -79 -171 -122 -350 -215 -894 -13 -80 -29
-185 -35 -235 -6 -49 -19 -148 -30 -220 -10 -71 -31 -213 -45 -315 -80 -579
-148 -933 -216 -1138 -19 -56 -55 -132 -63 -132 -2 0 -14 30 -28 67 -67 178
-132 521 -193 1021 -8 67 -21 175 -29 240 -8 64 -27 230 -41 367 -14 138 -37
342 -50 455 -13 113 -26 234 -29 270 -8 92 -41 358 -77 610 -103 724 -207
1013 -383 1065 -59 18 -67 18 -127 -1z"/>
</g>
</svg>
